<svg xmlns="http://www.w3.org/2000/svg" xmlns:xlink="http://www.w3.org/1999/xlink" id="processonSvg1000" viewBox="198.00521850585938 113.03125 980.5 574.3046875" width="980.5" height="574.3046875"><defs id="ProcessOnDefs1001"><marker id="ProcessOnMarker1036" markerUnits="userSpaceOnUse" orient="auto" markerWidth="16.23606797749979" markerHeight="10.550836550532098" viewBox="-1.0 -1.3763819204711736 16.23606797749979 10.550836550532098" refX="-1.0" refY="3.8990363547948754"><path id="ProcessOnPath1037" d="M12.0 3.8990363547948754L0.0 7.798072709589751V0.0Z" stroke="#323232" stroke-width="2.0" fill="#323232" transform="matrix(1.0,0.0,0.0,1.0,0.0,0.0)"/></marker><marker id="ProcessOnMarker1044" markerUnits="userSpaceOnUse" orient="auto" markerWidth="16.23606797749979" markerHeight="10.550836550532098" viewBox="-1.0 -1.3763819204711736 16.23606797749979 10.550836550532098" refX="-1.0" refY="3.8990363547948754"><path id="ProcessOnPath1045" d="M12.0 3.8990363547948754L0.0 7.798072709589751V0.0Z" stroke="#323232" stroke-width="2.0" fill="#323232" transform="matrix(1.0,0.0,0.0,1.0,0.0,0.0)"/></marker><marker id="ProcessOnMarker1051" markerUnits="userSpaceOnUse" orient="auto" markerWidth="16.23606797749979" markerHeight="10.550836550532098" viewBox="-1.0 -1.3763819204711736 16.23606797749979 10.550836550532098" refX="-1.0" refY="3.8990363547948754"><path id="ProcessOnPath1052" d="M12.0 3.8990363547948754L0.0 7.798072709589751V0.0Z" stroke="#323232" stroke-width="2.0" fill="#323232" transform="matrix(1.0,0.0,0.0,1.0,0.0,0.0)"/></marker><marker id="ProcessOnMarker1058" markerUnits="userSpaceOnUse" orient="auto" markerWidth="16.23606797749979" markerHeight="10.550836550532098" viewBox="-1.0 -1.3763819204711736 16.23606797749979 10.550836550532098" refX="-1.0" refY="3.8990363547948754"><path id="ProcessOnPath1059" d="M12.0 3.8990363547948754L0.0 7.798072709589751V0.0Z" stroke="#323232" stroke-width="2.0" fill="#323232" transform="matrix(1.0,0.0,0.0,1.0,0.0,0.0)"/></marker><marker id="ProcessOnMarker1065" markerUnits="userSpaceOnUse" orient="auto" markerWidth="16.23606797749979" markerHeight="10.550836550532098" viewBox="-1.0 -1.3763819204711736 16.23606797749979 10.550836550532098" refX="-1.0" refY="3.8990363547948754"><path id="ProcessOnPath1066" d="M12.0 3.8990363547948754L0.0 7.798072709589751V0.0Z" stroke="#323232" stroke-width="2.0" fill="#323232" transform="matrix(1.0,0.0,0.0,1.0,0.0,0.0)"/></marker><marker id="ProcessOnMarker1085" markerUnits="userSpaceOnUse" orient="auto" markerWidth="16.23606797749979" markerHeight="10.550836550532098" viewBox="-1.0 -1.3763819204711736 16.23606797749979 10.550836550532098" refX="-1.0" refY="3.8990363547948754"><path id="ProcessOnPath1086" d="M12.0 3.8990363547948754L0.0 7.798072709589751V0.0Z" stroke="#323232" stroke-width="2.0" fill="#323232" transform="matrix(1.0,0.0,0.0,1.0,0.0,0.0)"/></marker></defs><g id="ProcessOnG1002"><path id="ProcessOnPath1003" d="M198.00521850585938 113.03125H1178.5052185058594V687.3359375H198.00521850585938V113.03125Z" fill="none"/><g id="ProcessOnG1004"><g id="ProcessOnG1005" transform="matrix(1.0,0.0,0.0,1.0,387.5052185058594,133.03125)" opacity="1.0"><path id="ProcessOnPath1006" d="M0.0 0.0L766.0 0.0L766.0 335.0L0.0 335.0Z" stroke="#323232" stroke-width="2.0" stroke-dasharray="none" opacity="1.0" fill="#ffffff"/></g><g id="ProcessOnG1007" transform="matrix(1.0,0.0,0.0,1.0,624.5052185058594,536.3359375)" opacity="1.0"><path id="ProcessOnPath1008" d="M0.0 0.0L310.0 0.0L310.0 131.0L0.0 131.0Z" stroke="#323232" stroke-width="2.0" stroke-dasharray="none" opacity="1.0" fill="#ffffff"/></g><g id="ProcessOnG1009" transform="matrix(1.0,0.0,0.0,1.0,439.5052185058594,152.53125)" opacity="1.0"><path id="ProcessOnPath1010" d="M0.0 0.0L100.0 0.0L100.0 70.0L0.0 70.0Z" stroke="#323232" stroke-width="2.0" stroke-dasharray="none" opacity="1.0" fill="#ffffff"/><g id="ProcessOnG1011" transform="matrix(1.0,0.0,0.0,1.0,10.0,26.875)"><text id="ProcessOnText1012" fill="#000000" font-size="13" x="39.0" y="13.325" font-family="微软雅黑" font-weight="normal" font-style="normal" text-decoration="none" family="微软雅黑" text-anchor="middle" size="13">匹配框</text></g></g><g id="ProcessOnG1013" transform="matrix(1.0,0.0,0.0,1.0,966.5052185058594,185.03125)" opacity="1.0"><path id="ProcessOnPath1014" d="M0.0 0.0L100.0 0.0L100.0 70.0L0.0 70.0Z" stroke="#323232" stroke-width="2.0" stroke-dasharray="none" opacity="1.0" fill="#ffffff"/><g id="ProcessOnG1015" transform="matrix(1.0,0.0,0.0,1.0,10.0,26.875)"><text id="ProcessOnText1016" fill="#000000" font-size="13" x="39.0" y="13.325" font-family="微软雅黑" font-weight="normal" font-style="normal" text-decoration="none" family="微软雅黑" text-anchor="middle" size="13">属性框</text></g></g><g id="ProcessOnG1017" transform="matrix(1.0,0.0,0.0,1.0,618.5052185058594,185.03125)" opacity="1.0"><path id="ProcessOnPath1018" d="M0.0 0.0L325.0 0.0L325.0 159.0L0.0 159.0Z" stroke="#323232" stroke-width="2.0" stroke-dasharray="none" opacity="1.0" fill="#ffffff"/><g id="ProcessOnG1019" transform="matrix(1.0,0.0,0.0,1.0,10.0,71.375)"><text id="ProcessOnText1020" fill="#000000" font-size="13" x="151.5" y="13.325" font-family="微软雅黑" font-weight="normal" font-style="normal" text-decoration="none" family="微软雅黑" text-anchor="middle" size="13">画板</text></g></g><g id="ProcessOnG1021" transform="matrix(1.0,0.0,0.0,1.0,643.5052185058594,255.03125)" opacity="1.0"><path id="ProcessOnPath1022" d="M0.0 0.0L100.0 0.0L100.0 70.0L0.0 70.0Z" stroke="#323232" stroke-width="2.0" stroke-dasharray="none" opacity="1.0" fill="#ffffff"/><g id="ProcessOnG1023" transform="matrix(1.0,0.0,0.0,1.0,10.0,18.75)"><text id="ProcessOnText1024" fill="#000000" font-size="13" x="39.0" y="13.325" font-family="微软雅黑" font-weight="normal" font-style="normal" text-decoration="none" family="微软雅黑" text-anchor="middle" size="13">私有图属性</text><text id="ProcessOnText1025" fill="#000000" font-size="13" x="39.0" y="29.575" font-family="微软雅黑" font-weight="normal" font-style="normal" text-decoration="none" family="微软雅黑" text-anchor="middle" size="13">（D3控制）</text></g></g><g id="ProcessOnG1026" transform="matrix(1.0,0.0,0.0,1.0,218.00521850585938,308.53125)" opacity="1.0"><path id="ProcessOnPath1027" d="M0.0 0.0L100.0 0.0L100.0 70.0L0.0 70.0Z" stroke="#323232" stroke-width="2.0" stroke-dasharray="none" opacity="1.0" fill="#ffffff"/><g id="ProcessOnG1028" transform="matrix(1.0,0.0,0.0,1.0,10.0,26.875)"><text id="ProcessOnText1029" fill="#000000" font-size="13" x="39.0" y="13.325" font-family="微软雅黑" font-weight="normal" font-style="normal" text-decoration="none" family="微软雅黑" text-anchor="middle" size="13">自动机</text></g></g><g id="ProcessOnG1030" transform="matrix(1.0,0.0,0.0,1.0,809.5052185058594,572.640625)" opacity="1.0"><path id="ProcessOnPath1031" d="M0.0 0.0L93.0 0.0L93.0 58.390625L0.0 58.390625Z" stroke="#323232" stroke-width="2.0" stroke-dasharray="none" opacity="1.0" fill="#ffffff"/><g id="ProcessOnG1032" transform="matrix(1.0,0.0,0.0,1.0,10.0,21.0703125)"><text id="ProcessOnText1033" fill="#000000" font-size="13" x="35.5" y="13.325" font-family="微软雅黑" font-weight="normal" font-style="normal" text-decoration="none" family="微软雅黑" text-anchor="middle" size="13">公共图属性</text></g></g><g id="ProcessOnG1034"><path id="ProcessOnPath1035" d="M618.5052185058594 264.53125C574.3781293201903 264.53125 583.6323076915285 187.53125 554.7412864833592 187.53125" stroke="#323232" stroke-width="2.0" stroke-dasharray="none" fill="none" marker-end="url(#ProcessOnMarker1036)"/><g id="ProcessOnG1038" transform="matrix(1.0,0.0,0.0,1.0,580.9097270030469,209.78125)"><path id="ProcessOnPath1039" d="M0 0H65.0V32.5H0Z" fill="#fff" transform="matrix(1.0,0.0,0.0,1.0,-32.5,0.0)"/><text id="ProcessOnText1040" fill="#000000" font-size="13" x="0.0" y="13.325" font-family="微软雅黑" font-weight="normal" font-style="normal" text-decoration="none" family="微软雅黑" text-anchor="middle" size="13">画板变动后</text><text id="ProcessOnText1041" fill="#000000" font-size="13" x="0.0" y="29.575" font-family="微软雅黑" font-weight="normal" font-style="normal" text-decoration="none" family="微软雅黑" text-anchor="middle" size="13">重新匹配</text></g></g><g id="ProcessOnG1042"><path id="ProcessOnPath1043" d="M781.0052185058594 344.03125C781.0052185058594 440.2703242581333 856.0052185058594 476.4015507418667 856.0052185058594 557.4045570225002" stroke="#323232" stroke-width="2.0" stroke-dasharray="none" fill="none" marker-end="url(#ProcessOnMarker1044)"/><g id="ProcessOnG1046" transform="matrix(1.0,0.0,0.0,1.0,818.5052185058594,448.30642900281254)"><path id="ProcessOnPath1047" d="M0 0H26.0V16.25H0Z" fill="#fff" transform="matrix(1.0,0.0,0.0,1.0,-13.0,0.0)"/><text id="ProcessOnText1048" fill="#000000" font-size="13" x="0.0" y="13.325" font-family="微软雅黑" font-weight="normal" font-style="normal" text-decoration="none" family="微软雅黑" text-anchor="middle" size="13">更新</text></g></g><g id="ProcessOnG1049"><path id="ProcessOnPath1050" d="M1016.5052185058594 255.03125C1016.5052185058594 401.05562674414375 1048.529595250003 601.8359375 917.7412864833592 601.8359375" stroke="#323232" stroke-width="2.0" stroke-dasharray="none" fill="none" marker-end="url(#ProcessOnMarker1051)"/><g id="ProcessOnG1053" transform="matrix(1.0,0.0,0.0,1.0,1016.1688682821008,475.0677350290539)"><path id="ProcessOnPath1054" d="M0 0H26.000000000000114V16.25H0Z" fill="#fff" transform="matrix(1.0,0.0,0.0,1.0,-13.000000000000057,0.0)"/><text id="ProcessOnText1055" fill="#000000" font-size="13" x="0.0" y="13.325" font-family="微软雅黑" font-weight="normal" font-style="normal" text-decoration="none" family="微软雅黑" text-anchor="middle" size="13">绑定</text></g></g><g id="ProcessOnG1056"><path id="ProcessOnPath1057" d="M618.5052185058594 264.53125C494.2208671176013 264.53125 442.28956989411745 343.53125 333.24128648335915 343.53125" stroke="#323232" stroke-width="2.0" stroke-dasharray="none" fill="none" marker-end="url(#ProcessOnMarker1058)"/><g id="ProcessOnG1060" transform="matrix(1.0,0.0,0.0,1.0,470.15972700304684,295.90625)"><path id="ProcessOnPath1061" d="M0 0H26.0V16.25H0Z" fill="#fff" transform="matrix(1.0,0.0,0.0,1.0,-13.0,0.0)"/><text id="ProcessOnText1062" fill="#000000" font-size="13" x="0.0" y="13.325" font-family="微软雅黑" font-weight="normal" font-style="normal" text-decoration="none" family="微软雅黑" text-anchor="middle" size="13">更新</text></g></g><g id="ProcessOnG1063"><path id="ProcessOnPath1064" d="M439.5052185058594 187.53125C355.5497541214609 187.53125 268.0052185058594 224.57578561560155 268.0052185058594 293.2951820225002" stroke="#323232" stroke-width="2.0" stroke-dasharray="none" fill="none" marker-end="url(#ProcessOnMarker1065)"/><g id="ProcessOnG1067" transform="matrix(1.0,0.0,0.0,1.0,322.27191936170993,198.39344235866312)"><path id="ProcessOnPath1068" d="M0 0H65.0V32.5H0Z" fill="#fff" transform="matrix(1.0,0.0,0.0,1.0,-32.5,0.0)"/><text id="ProcessOnText1069" fill="#000000" font-size="13" x="0.0" y="13.325" font-family="微软雅黑" font-weight="normal" font-style="normal" text-decoration="none" family="微软雅黑" text-anchor="middle" size="13">内容变动后</text><text id="ProcessOnText1070" fill="#000000" font-size="13" x="0.0" y="29.575" font-family="微软雅黑" font-weight="normal" font-style="normal" text-decoration="none" family="微软雅黑" text-anchor="middle" size="13">重新匹配</text></g></g><g id="ProcessOnG1071" transform="matrix(1.0,0.0,0.0,1.0,998.5052185058594,141.03125)" opacity="1.0"><path id="ProcessOnPath1072" d="M0.0 0.0L160.0 0.0L160.0 40.0L0.0 40.0Z" stroke="none" stroke-width="0.0" stroke-dasharray="none" opacity="1.0" fill="none"/><g id="ProcessOnG1073" transform="matrix(1.0,0.0,0.0,1.0,0.0,11.875)"><text id="ProcessOnText1074" fill="#000000" font-size="13" x="79.0" y="13.325" font-family="微软雅黑" font-weight="normal" font-style="normal" text-decoration="none" family="微软雅黑" text-anchor="middle" size="13">Vue视图（部分）</text></g></g><g id="ProcessOnG1075" transform="matrix(1.0,0.0,0.0,1.0,693.0052185058594,627.3359375)" opacity="1.0"><path id="ProcessOnPath1076" d="M0.0 0.0L160.0 0.0L160.0 40.0L0.0 40.0Z" stroke="none" stroke-width="0.0" stroke-dasharray="none" opacity="1.0" fill="none"/><g id="ProcessOnG1077" transform="matrix(1.0,0.0,0.0,1.0,0.0,11.875)"><text id="ProcessOnText1078" fill="#000000" font-size="13" x="79.0" y="13.325" font-family="微软雅黑" font-weight="normal" font-style="normal" text-decoration="none" family="微软雅黑" text-anchor="middle" size="13">VueX仓库</text></g></g><g id="ProcessOnG1079" transform="matrix(1.0,0.0,0.0,1.0,659.5052185058594,572.640625)" opacity="1.0"><path id="ProcessOnPath1080" d="M0.0 0.0L93.0 0.0L93.0 58.390625L0.0 58.390625Z" stroke="#323232" stroke-width="2.0" stroke-dasharray="none" opacity="1.0" fill="#ffffff"/><g id="ProcessOnG1081" transform="matrix(1.0,0.0,0.0,1.0,10.0,21.0703125)"><text id="ProcessOnText1082" fill="#000000" font-size="13" x="35.5" y="13.325" font-family="微软雅黑" font-weight="normal" font-style="normal" text-decoration="none" family="微软雅黑" text-anchor="middle" size="13">画板属性</text></g></g><g id="ProcessOnG1083"><path id="ProcessOnPath1084" d="M781.0052185058594 344.03125C781.0052185058594 440.2703242581333 706.0052185058594 476.4015507418667 706.0052185058594 557.4045570225002" stroke="#323232" stroke-width="2.0" stroke-dasharray="none" fill="none" marker-end="url(#ProcessOnMarker1085)"/><g id="ProcessOnG1087" transform="matrix(1.0,0.0,0.0,1.0,743.5052185058594,448.30642900281254)"><path id="ProcessOnPath1088" d="M0 0H26.0V16.25H0Z" fill="#fff" transform="matrix(1.0,0.0,0.0,1.0,-13.0,0.0)"/><text id="ProcessOnText1089" fill="#000000" font-size="13" x="0.0" y="13.325" font-family="微软雅黑" font-weight="normal" font-style="normal" text-decoration="none" family="微软雅黑" text-anchor="middle" size="13">使用</text></g></g></g></g></svg>