<svg xmlns="http://www.w3.org/2000/svg" xmlns:xlink="http://www.w3.org/1999/xlink" id="processonSvg1000" viewBox="127.00521850585938 49.53125 597.0 455.5" width="597.0" height="455.5"><defs id="ProcessOnDefs1001"><marker id="ProcessOnMarker1036" markerUnits="userSpaceOnUse" orient="auto" markerWidth="16.23606797749979" markerHeight="10.550836550532098" viewBox="-1.0 -1.3763819204711736 16.23606797749979 10.550836550532098" refX="-1.0" refY="3.8990363547948754"><path id="ProcessOnPath1037" d="M12.0 3.8990363547948754L0.0 7.798072709589751V0.0Z" stroke="#323232" stroke-width="2.0" fill="#323232" transform="matrix(1.0,0.0,0.0,1.0,0.0,0.0)"/></marker><marker id="ProcessOnMarker1043" markerUnits="userSpaceOnUse" orient="auto" markerWidth="16.23606797749979" markerHeight="10.550836550532098" viewBox="-1.0 -1.3763819204711736 16.23606797749979 10.550836550532098" refX="-1.0" refY="3.8990363547948754"><path id="ProcessOnPath1044" d="M12.0 3.8990363547948754L0.0 7.798072709589751V0.0Z" stroke="#323232" stroke-width="2.0" fill="#323232" transform="matrix(1.0,0.0,0.0,1.0,0.0,0.0)"/></marker></defs><g id="ProcessOnG1002"><path id="ProcessOnPath1003" d="M127.00521850585938 49.53125H724.0052185058594V505.03125H127.00521850585938V49.53125Z" fill="none"/><g id="ProcessOnG1004"><g id="ProcessOnG1005" transform="matrix(1.0,0.0,0.0,1.0,147.00521850585938,69.53125)" opacity="1.0"><path id="ProcessOnPath1006" d="M0.0 0.0L209.0 0.0L209.0 130.0L0.0 130.0Z" stroke="#323232" stroke-width="2.0" stroke-dasharray="none" opacity="1.0" fill="#ffffff"/></g><g id="ProcessOnG1007" transform="matrix(1.0,0.0,0.0,1.0,255.00521850585938,84.53125)" opacity="1.0"><path id="ProcessOnPath1008" d="M0.0 0.0L89.0 0.0L89.0 50.0L0.0 50.0Z" stroke="#323232" stroke-width="2.0" stroke-dasharray="none" opacity="1.0" fill="#ffffff"/><g id="ProcessOnG1009" transform="matrix(1.0,0.0,0.0,1.0,10.0,16.875)"><text id="ProcessOnText1010" fill="#000000" font-size="13" x="33.5" y="13.325" font-family="微软雅黑" font-weight="normal" font-style="normal" text-decoration="none" family="微软雅黑" text-anchor="middle" size="13">画板模式</text></g></g><g id="ProcessOnG1011" transform="matrix(1.0,0.0,0.0,1.0,430.0052185058594,69.53125)" opacity="1.0"><path id="ProcessOnPath1012" d="M0.0 0.0L274.0 0.0L274.0 189.0L0.0 189.0Z" stroke="#323232" stroke-width="2.0" stroke-dasharray="none" opacity="1.0" fill="#ffffff"/><g id="ProcessOnG1013" transform="matrix(1.0,0.0,0.0,1.0,10.0,86.375)"><text id="ProcessOnText1014" fill="#000000" font-size="13" x="126.0" y="13.325" font-family="微软雅黑" font-weight="normal" font-style="normal" text-decoration="none" family="微软雅黑" text-anchor="middle" size="13">画板</text></g></g><g id="ProcessOnG1015" transform="matrix(1.0,0.0,0.0,1.0,518.0052185058594,334.03125)" opacity="1.0"><path id="ProcessOnPath1016" d="M0.0 0.0L100.0 0.0L100.0 70.0L0.0 70.0Z" stroke="#323232" stroke-width="2.0" stroke-dasharray="none" opacity="1.0" fill="#ffffff"/><g id="ProcessOnG1017" transform="matrix(1.0,0.0,0.0,1.0,10.0,26.875)"><text id="ProcessOnText1018" fill="#000000" font-size="13" x="39.0" y="13.325" font-family="微软雅黑" font-weight="normal" font-style="normal" text-decoration="none" family="微软雅黑" text-anchor="middle" size="13">模式切换按钮</text></g></g><g id="ProcessOnG1019" transform="matrix(1.0,0.0,0.0,1.0,147.00521850585938,167.53125)" opacity="1.0"><path id="ProcessOnPath1020" d="M0.0 0.0L86.0 0.0L86.0 32.0L0.0 32.0Z" stroke="none" stroke-width="0.0" stroke-dasharray="none" opacity="1.0" fill="none"/><g id="ProcessOnG1021" transform="matrix(1.0,0.0,0.0,1.0,0.0,7.875)"><text id="ProcessOnText1022" fill="#000000" font-size="13" x="42.0" y="13.325" font-family="微软雅黑" font-weight="normal" font-style="normal" text-decoration="none" family="微软雅黑" text-anchor="middle" size="13">VueX仓库</text></g></g><g id="ProcessOnG1023" transform="matrix(1.0,0.0,0.0,1.0,147.00521850585938,69.53125)" opacity="1.0"><path id="ProcessOnPath1024" d="M0.0 0.0L102.0 0.0L102.0 80.0L0.0 80.0Z" stroke="none" stroke-width="0.0" stroke-dasharray="none" opacity="1.0" fill="none"/><g id="ProcessOnG1025" transform="matrix(1.0,0.0,0.0,1.0,0.0,31.875)"><text id="ProcessOnText1026" fill="#000000" font-size="13" x="50.0" y="13.325" font-family="微软雅黑" font-weight="normal" font-style="normal" text-decoration="none" family="微软雅黑" text-anchor="middle" size="13">画板属性</text></g></g><g id="ProcessOnG1027" transform="matrix(1.0,0.0,0.0,1.0,573.0052185058594,388.03125)" opacity="1.0"><path id="ProcessOnPath1028" d="M0.0 0.0L91.0 0.0L107.0 16.0L107.0 97.0L0.0 97.0L0.0 0.0Z" stroke="none" stroke-width="0.0" stroke-dasharray="none" opacity="1.0" fill="#ffffaa"/><path id="ProcessOnPath1029" d="M91.0 0.0L91.0 16.0L107.0 16.0Z" stroke="none" stroke-width="0.0" stroke-dasharray="none" opacity="1.0" fill="#cdcd78"/><path id="ProcessOnPath1030" d="M0.0 0.0L91.0 0.0L107.0 16.0L107.0 97.0L0.0 97.0L0.0 0.0Z" stroke="none" stroke-width="0.0" stroke-dasharray="none" opacity="1.0" fill="none"/><g id="ProcessOnG1031" transform="matrix(1.0,0.0,0.0,1.0,10.0,32.25)"><text id="ProcessOnText1032" fill="#000000" font-size="13" x="42.5" y="13.325" font-family="微软雅黑" font-weight="normal" font-style="normal" text-decoration="none" family="微软雅黑" text-anchor="middle" size="13">绑定事件</text><text id="ProcessOnText1033" fill="#000000" font-size="13" x="42.5" y="29.575" font-family="微软雅黑" font-weight="normal" font-style="normal" text-decoration="none" family="微软雅黑" text-anchor="middle" size="13">changeMode</text></g></g><g id="ProcessOnG1034"><path id="ProcessOnPath1035" d="M518.0052185058594 369.03125C389.79757442798075 369.03125 299.5052185058594 262.7388940778786 299.5052185058594 149.7673179774998" stroke="#323232" stroke-width="2.0" stroke-dasharray="none" fill="none" marker-end="url(#ProcessOnMarker1036)"/><g id="ProcessOnG1038" transform="matrix(1.0,0.0,0.0,1.0,360.6773519766549,293.63862502639194)"><path id="ProcessOnPath1039" d="M0 0H26.0V16.25H0Z" fill="#fff" transform="matrix(1.0,0.0,0.0,1.0,-13.0,0.0)"/><text id="ProcessOnText1040" fill="#000000" font-size="13" x="0.0" y="13.325" font-family="微软雅黑" font-weight="normal" font-style="normal" text-decoration="none" family="微软雅黑" text-anchor="middle" size="13">修改</text></g></g><g id="ProcessOnG1041"><path id="ProcessOnPath1042" d="M568.0052185058594 334.03125C568.0052185058594 303.8286011095467 567.0052185058594 288.7338988904533 567.0052185058594 273.7673179774998" stroke="#323232" stroke-width="2.0" stroke-dasharray="none" fill="none" marker-end="url(#ProcessOnMarker1043)"/><g id="ProcessOnG1045" transform="matrix(1.0,0.0,0.0,1.0,567.5052185058594,290.06075849718746)"><path id="ProcessOnPath1046" d="M0 0H78.0V16.25H0Z" fill="#fff" transform="matrix(1.0,0.0,0.0,1.0,-39.0,0.0)"/><text id="ProcessOnText1047" fill="#000000" font-size="13" x="0.0" y="13.325" font-family="微软雅黑" font-weight="normal" font-style="normal" text-decoration="none" family="微软雅黑" text-anchor="middle" size="13">重新绑定事件</text></g></g></g></g></svg>